<?xml version="1.0" encoding="utf-8"?>
<!-- Generator: Adobe Illustrator 24.0.2, SVG Export Plug-In . SVG Version: 6.00 Build 0)  -->
<svg version="1.1" xmlns="http://www.w3.org/2000/svg" xmlns:xlink="http://www.w3.org/1999/xlink" x="0px" y="0px"
	 viewBox="0 0 302 331.35" style="enable-background:new 0 0 302 331.35;" xml:space="preserve">
<style type="text/css">
	.st0{display:none;}
	.st1{display:inline;fill:#F5F5F5;}
	.st2{fill:#969899;}
</style>
<g id="Background_Complete">
</g>
<g id="Background_Simple" class="st0">
	<path class="st1" d="M-132.54,35.05c-4.07,92.19,38.19,159.88,123.99,228.55c73.71,59,158.58,78.81,254.43,80.08
		c54.23,0.72,115.4-15.13,156.88-42.88c41.48-27.75,71.94-73.52,71.39-122.14c-0.55-48.62-37.23-97.12-87.11-104.78
		c-50.4-7.74-100.68,24.37-151.02,16.3c-36.48-5.85-65.88-31.84-89.03-59.6c-23.15-27.76-42.77-58.8-71.12-81.66
		C52.28-70.12,22.61-82.84-8.15-83.92C-38.92-85-70.56-73.7-90.95-51.5C-90.95-51.5-130.33-15.05-132.54,35.05z"/>
</g>
<g id="Floor">
</g>
<g id="Plant">
</g>
<g id="Device">
</g>
<g id="Character_3">
</g>
<g id="Character_2">
</g>
<g id="Character_1">
</g>
<g id="Arrows">
	<g>
		<path class="st2" d="M64.85,18.65C38.33,32.73,18.88,56.3,10.09,85.01c-18.15,59.27,15.31,122.25,74.57,140.4l0,0
			c36.37,11.14,74.12,2.82,102.07-18.95l94.73,118.5l14.49-11.58l-95.53-119.5c11-11.96,19.57-26.49,24.64-43.04
			c1.2-3.91,2.18-7.85,2.94-11.82c4.85-25.11,1.01-50.92-11.15-73.83c-14.08-26.52-37.65-45.96-66.36-54.75
			C121.78,1.65,91.37,4.56,64.85,18.65z M145.06,28.18c23.97,7.34,43.65,23.58,55.41,45.72c11.76,22.14,14.2,47.53,6.85,71.51
			c-15.15,49.49-67.74,77.42-117.23,62.27c-49.49-15.15-77.42-67.73-62.27-117.23c7.34-23.97,23.58-43.65,45.72-55.41
			C95.69,23.27,121.09,20.84,145.06,28.18z"/>
	</g>
</g>
<g id="Magnifying_glass">
</g>
</svg>
